<svg xmlns="http://www.w3.org/2000/svg" width="15" height="24" viewBox="0 0 15 24">
    <g fill="#323232" fill-rule="evenodd">
        <path d="M11.5 11.994c0 2.206-1.794 4-4 4s-4-1.794-4-4 1.794-4 4-4 4 1.794 4 4m2.638-7.975a1.985 1.985 0 0 0 .098-1.527 1.99 1.99 0 0 0-1.009-1.15c-.973-.475-2.204-.054-2.678.912a2.003 2.003 0 0 0 .569 2.463l-.692 1.981A6.45 6.45 0 0 0 8 6.02V3.923c.86-.224 1.5-1 1.5-1.929A1.998 1.998 0 0 0 7.5 0c-1.103 0-2 .891-2 1.994 0 .93.64 1.705 1.5 1.93v2.095a6.445 6.445 0 0 0-2.402.667l-.682-2a2 2 0 0 0 .535-2.432c-.475-.966-1.704-1.39-2.678-.91a1.988 1.988 0 0 0-1.01 1.148A1.985 1.985 0 0 0 .862 4.02a1.992 1.992 0 0 0 1.795 1.12c.117 0 .231-.02.344-.04l.721 2.116A6.489 6.489 0 0 0 1 12.495v9.092A2.415 2.415 0 0 0 3.407 24a2.424 2.424 0 0 0 2.357-1.922l.425-2.046a1.311 1.311 0 0 1 1.278-1.038c.624 0 1.163.445 1.281 1.06l.372 1.942A2.47 2.47 0 0 0 11.538 24 2.47 2.47 0 0 0 14 21.532v-9.038a6.49 6.49 0 0 0-2.7-5.263l.742-2.128c.1.015.198.035.3.035a1.99 1.99 0 0 0 1.796-1.119z"/>
        <path d="M7.5 10.494c-.827 0-1.5.673-1.5 1.5s.673 1.5 1.5 1.5 1.5-.673 1.5-1.5-.673-1.5-1.5-1.5"/>
    </g>
</svg>
