<svg xmlns="http://www.w3.org/2000/svg" width="24" height="23" viewBox="0 0 24 23">
    <g fill="#323232" fill-rule="evenodd">
        <path d="M23.5 22H23V7.5a.5.5 0 0 0-.5-.5h-3a.5.5 0 0 0-.5.5V22h-2v-7.5a.5.5 0 0 0-.5-.5h-3a.5.5 0 0 0-.5.5V22h-2v-9.5a.5.5 0 0 0-.5-.5h-3a.5.5 0 0 0-.5.5V22H5v-4.5a.5.5 0 0 0-.5-.5h-3a.5.5 0 0 0-.5.5V22H.5a.5.5 0 0 0 0 1h23a.5.5 0 0 0 0-1M21.5 0h-4a.5.5 0 0 0 0 1h2.819l-5.467 5.923-5.694-1.897a.495.495 0 0 0-.478.09l-6 5a.5.5 0 1 0 .64.768l5.786-4.822 5.736 1.912a.5.5 0 0 0 .525-.135L21 1.737V4.5a.5.5 0 0 0 1 0v-4a.5.5 0 0 0-.5-.5"/>
    </g>
</svg>
